<?xml version="1.0" ?><svg data-name="Layer 45" height="24" id="Layer_45" viewBox="0 0 24 24" width="24" xmlns="http://www.w3.org/2000/svg"><title/><path d="M21.89233,15.68733A4.125,4.125,0,0,1,17.69541,18.617c-2.68958,0-4.752-1.24056-4.752-5.015a4.31723,4.31723,0,0,1,4.57219-4.63577C19.39927,8.96622,22,9.82808,22,14.01584v.48093H15.45322a2.05435,2.05435,0,0,0,2.24219,2.19,1.61592,1.61592,0,0,0,1.614-.99948ZM19.417,13a2.01569,2.01569,0,0,0-1.937-2.0519c-1.18329,0-1.81152.8455-1.95473,2.0519Z" style="fill:#4c9ae8"/><rect height="1.41434" style="fill:#4c9ae8" width="5" x="15" y="6.58566"/><path d="M10.30621,11.70648A2.47235,2.47235,0,0,0,11.823,9.17316c0-1.27527-.77545-3.17072-3.80908-3.17072H2V18.37585H7.23846c2.53333,0,3.20538-.43091,3.91254-1.12a3.59626,3.59626,0,0,0,1.06879-2.551A2.88541,2.88541,0,0,0,10.30621,11.70648ZM4.5,8H8a1.5,1.5,0,0,1,0,3H4.5Zm3.75,8H4.5V13H8.25a1.5,1.5,0,0,1,0,3Z" style="fill:#4c9ae8"/></svg>