<svg xmlns="http://www.w3.org/2000/svg" xmlns:xlink="http://www.w3.org/1999/xlink" width="150" zoomAndPan="magnify" viewBox="0 0 112.5 37.5" height="50" preserveAspectRatio="xMidYMid meet" version="1.0"><defs><g/><clipPath id="d99d111c47"><path d="M 29.722656 1.183594 L 37.863281 1.183594 L 37.863281 9.324219 L 29.722656 9.324219 Z M 29.722656 1.183594 " clip-rule="nonzero"/></clipPath></defs><g fill="#000000" fill-opacity="1"><g transform="translate(21.339857, 21.073986)"><g><path d="M 2.328125 -5.21875 C 1.648438 -4.332031 1.3125 -3.367188 1.3125 -2.328125 C 1.3125 -1.097656 1.828125 -0.144531 2.859375 0.53125 C 3.460938 0.9375 4.144531 1.140625 4.90625 1.140625 C 5.675781 1.140625 6.34375 0.988281 6.90625 0.6875 C 7.96875 0.132812 8.5625 -0.785156 8.6875 -2.078125 C 8.707031 -2.171875 8.71875 -2.265625 8.71875 -2.359375 C 8.71875 -2.835938 8.582031 -3.359375 8.3125 -3.921875 C 8.039062 -4.484375 7.601562 -5 7 -5.46875 L 3.46875 -8.265625 C 2.695312 -8.867188 2.3125 -9.644531 2.3125 -10.59375 C 2.3125 -11.550781 2.617188 -12.359375 3.234375 -13.015625 C 3.847656 -13.679688 4.679688 -14.015625 5.734375 -14.015625 C 6.253906 -14.015625 6.820312 -13.945312 7.4375 -13.8125 L 8.21875 -13.8125 L 8.265625 -11.40625 L 8.0625 -11.40625 C 8.050781 -12.03125 7.828125 -12.519531 7.390625 -12.875 C 6.953125 -13.238281 6.398438 -13.421875 5.734375 -13.421875 C 5.078125 -13.421875 4.523438 -13.203125 4.078125 -12.765625 C 3.640625 -12.328125 3.421875 -11.765625 3.421875 -11.078125 C 3.421875 -10.390625 3.707031 -9.816406 4.28125 -9.359375 L 7.90625 -6.5 C 9.34375 -5.351562 10.0625 -3.976562 10.0625 -2.375 C 10.0625 -1.164062 9.585938 -0.132812 8.640625 0.71875 C 7.816406 1.46875 6.71875 1.84375 5.34375 1.84375 C 4.5 1.84375 3.75 1.6875 3.09375 1.375 C 1.863281 0.800781 1.128906 -0.175781 0.890625 -1.5625 C 0.847656 -1.78125 0.828125 -2.046875 0.828125 -2.359375 C 0.828125 -2.679688 0.914062 -3.117188 1.09375 -3.671875 C 1.28125 -4.234375 1.632812 -4.796875 2.15625 -5.359375 Z M 2.328125 -5.21875 "/></g></g></g><g fill="#000000" fill-opacity="1"><g transform="translate(19.27276, 29.489917)"><g><path d="M 2.328125 -5.21875 C 1.648438 -4.332031 1.3125 -3.367188 1.3125 -2.328125 C 1.3125 -1.097656 1.828125 -0.144531 2.859375 0.53125 C 3.460938 0.9375 4.144531 1.140625 4.90625 1.140625 C 5.675781 1.140625 6.34375 0.988281 6.90625 0.6875 C 7.96875 0.132812 8.5625 -0.785156 8.6875 -2.078125 C 8.707031 -2.171875 8.71875 -2.265625 8.71875 -2.359375 C 8.71875 -2.835938 8.582031 -3.359375 8.3125 -3.921875 C 8.039062 -4.484375 7.601562 -5 7 -5.46875 L 3.46875 -8.265625 C 2.695312 -8.867188 2.3125 -9.644531 2.3125 -10.59375 C 2.3125 -11.550781 2.617188 -12.359375 3.234375 -13.015625 C 3.847656 -13.679688 4.679688 -14.015625 5.734375 -14.015625 C 6.253906 -14.015625 6.820312 -13.945312 7.4375 -13.8125 L 8.21875 -13.8125 L 8.265625 -11.40625 L 8.0625 -11.40625 C 8.050781 -12.03125 7.828125 -12.519531 7.390625 -12.875 C 6.953125 -13.238281 6.398438 -13.421875 5.734375 -13.421875 C 5.078125 -13.421875 4.523438 -13.203125 4.078125 -12.765625 C 3.640625 -12.328125 3.421875 -11.765625 3.421875 -11.078125 C 3.421875 -10.390625 3.707031 -9.816406 4.28125 -9.359375 L 7.90625 -6.5 C 9.34375 -5.351562 10.0625 -3.976562 10.0625 -2.375 C 10.0625 -1.164062 9.585938 -0.132812 8.640625 0.71875 C 7.816406 1.46875 6.71875 1.84375 5.34375 1.84375 C 4.5 1.84375 3.75 1.6875 3.09375 1.375 C 1.863281 0.800781 1.128906 -0.175781 0.890625 -1.5625 C 0.847656 -1.78125 0.828125 -2.046875 0.828125 -2.359375 C 0.828125 -2.679688 0.914062 -3.117188 1.09375 -3.671875 C 1.28125 -4.234375 1.632812 -4.796875 2.15625 -5.359375 Z M 2.328125 -5.21875 "/></g></g></g><g fill="#000000" fill-opacity="1"><g transform="translate(29.134725, 29.957152)"><g><path d="M -2.171875 3.703125 C -1.671875 3.867188 -1.175781 3.953125 -0.6875 3.953125 C -0.207031 3.953125 0.296875 3.847656 0.828125 3.640625 C 1.359375 3.441406 1.84375 3.128906 2.28125 2.703125 C 2.71875 2.273438 3.078125 1.628906 3.359375 0.765625 C 3.648438 -0.0859375 3.796875 -1.101562 3.796875 -2.28125 L 3.796875 -17.21875 C 3.773438 -17.6875 3.59375 -18.085938 3.25 -18.421875 C 2.914062 -18.765625 2.507812 -18.9375 2.03125 -18.9375 L 1.671875 -18.9375 L 1.671875 -19.21875 L 7.6875 -19.21875 L 7.6875 -18.9375 L 7.328125 -18.9375 C 6.859375 -18.9375 6.453125 -18.769531 6.109375 -18.4375 C 5.773438 -18.113281 5.597656 -17.707031 5.578125 -17.21875 L 5.578125 -2.203125 C 5.578125 -0.953125 5.382812 0.132812 5 1.0625 C 4.613281 2 4.128906 2.707031 3.546875 3.1875 C 2.441406 4.039062 1.222656 4.46875 -0.109375 4.46875 C -0.890625 4.46875 -1.613281 4.316406 -2.28125 4.015625 Z M -2.171875 3.703125 "/></g></g></g><g clip-path="url(#d99d111c47)"><path fill="#000000" d="M 33.886719 3.359375 C 33.910156 3.589844 33.972656 3.804688 34.070312 4.015625 C 34.171875 4.222656 34.304688 4.40625 34.464844 4.570312 C 34.628906 4.734375 34.8125 4.863281 35.019531 4.964844 C 35.230469 5.0625 35.445312 5.125 35.675781 5.148438 C 36.226562 5.210938 36.933594 5.25 37.851562 5.25 C 36.933594 5.25 36.226562 5.289062 35.675781 5.347656 C 35.445312 5.375 35.230469 5.4375 35.019531 5.535156 C 34.8125 5.636719 34.628906 5.765625 34.464844 5.929688 C 34.304688 6.089844 34.171875 6.277344 34.070312 6.484375 C 33.972656 6.691406 33.910156 6.910156 33.886719 7.140625 C 33.824219 7.6875 33.785156 8.398438 33.785156 9.316406 C 33.785156 8.398438 33.746094 7.6875 33.6875 7.140625 C 33.660156 6.910156 33.601562 6.691406 33.5 6.484375 C 33.402344 6.277344 33.269531 6.089844 33.105469 5.929688 C 32.945312 5.765625 32.757812 5.636719 32.550781 5.535156 C 32.34375 5.4375 32.125 5.375 31.894531 5.347656 C 31.347656 5.289062 30.636719 5.25 29.722656 5.25 C 30.636719 5.25 31.347656 5.210938 31.894531 5.148438 C 32.125 5.125 32.34375 5.0625 32.550781 4.964844 C 32.757812 4.863281 32.945312 4.734375 33.105469 4.570312 C 33.269531 4.40625 33.402344 4.222656 33.5 4.015625 C 33.601562 3.804688 33.660156 3.589844 33.6875 3.359375 C 33.746094 2.808594 33.785156 2.101562 33.785156 1.183594 C 33.785156 2.101562 33.824219 2.808594 33.886719 3.359375 Z M 33.886719 3.359375 " fill-opacity="1" fill-rule="nonzero"/></g><g fill="#000000" fill-opacity="1"><g transform="translate(40.89742, 23.945166)"><g><path d="M 0.953125 -3.359375 C 0.953125 -2.828125 1.023438 -2.359375 1.171875 -1.953125 C 1.316406 -1.554688 1.515625 -1.21875 1.765625 -0.9375 C 2.015625 -0.664062 2.304688 -0.453125 2.640625 -0.296875 C 2.972656 -0.148438 3.320312 -0.078125 3.6875 -0.078125 C 3.925781 -0.078125 4.171875 -0.113281 4.421875 -0.1875 C 4.679688 -0.257812 4.894531 -0.363281 5.0625 -0.5 C 5.257812 -0.664062 5.425781 -0.835938 5.5625 -1.015625 C 5.707031 -1.191406 5.816406 -1.394531 5.890625 -1.625 C 5.960938 -1.863281 6.015625 -2.132812 6.046875 -2.4375 C 6.078125 -2.75 6.09375 -3.109375 6.09375 -3.515625 C 6.09375 -4.148438 6.039062 -4.675781 5.9375 -5.09375 C 5.832031 -5.519531 5.679688 -5.859375 5.484375 -6.109375 C 5.285156 -6.367188 5.035156 -6.554688 4.734375 -6.671875 C 4.441406 -6.785156 4.113281 -6.84375 3.75 -6.84375 C 3.351562 -6.84375 2.984375 -6.753906 2.640625 -6.578125 C 2.304688 -6.410156 2.007812 -6.171875 1.75 -5.859375 C 1.5 -5.554688 1.300781 -5.1875 1.15625 -4.75 C 1.019531 -4.320312 0.953125 -3.859375 0.953125 -3.359375 Z M 4.546875 -9.625 C 4.609375 -9.625 4.703125 -9.613281 4.828125 -9.59375 C 4.960938 -9.582031 5.160156 -9.578125 5.421875 -9.578125 C 5.640625 -9.578125 5.8125 -9.582031 5.9375 -9.59375 C 6.0625 -9.613281 6.148438 -9.625 6.203125 -9.625 C 6.304688 -9.625 6.367188 -9.597656 6.390625 -9.546875 C 6.421875 -9.503906 6.4375 -9.441406 6.4375 -9.359375 L 6.4375 -1.84375 C 6.4375 -1.5 6.4375 -1.222656 6.4375 -1.015625 C 6.445312 -0.804688 6.46875 -0.644531 6.5 -0.53125 C 6.539062 -0.425781 6.597656 -0.351562 6.671875 -0.3125 C 6.742188 -0.28125 6.847656 -0.265625 6.984375 -0.265625 C 7.066406 -0.265625 7.15625 -0.265625 7.25 -0.265625 C 7.34375 -0.273438 7.4375 -0.28125 7.53125 -0.28125 C 7.625 -0.289062 7.707031 -0.296875 7.78125 -0.296875 C 7.851562 -0.304688 7.898438 -0.3125 7.921875 -0.3125 C 8.015625 -0.3125 8.082031 -0.289062 8.125 -0.25 C 8.164062 -0.207031 8.1875 -0.171875 8.1875 -0.140625 C 8.1875 -0.0976562 8.164062 -0.0507812 8.125 0 C 8.09375 0.0390625 8.039062 0.0625 7.96875 0.0625 C 7.914062 0.0625 7.800781 0.0507812 7.625 0.03125 C 7.457031 0.0078125 7.28125 0 7.09375 0 C 6.925781 0 6.773438 0.0078125 6.640625 0.03125 C 6.503906 0.0507812 6.410156 0.0625 6.359375 0.0625 C 6.203125 0.0625 6.113281 -0.015625 6.09375 -0.171875 C 6.070312 -0.335938 6.0625 -0.570312 6.0625 -0.875 L 6.0625 -1.234375 L 6.03125 -1.234375 C 5.726562 -0.753906 5.390625 -0.394531 5.015625 -0.15625 C 4.648438 0.0820312 4.1875 0.203125 3.625 0.203125 C 3.164062 0.203125 2.742188 0.113281 2.359375 -0.0625 C 1.984375 -0.238281 1.660156 -0.484375 1.390625 -0.796875 C 1.128906 -1.117188 0.921875 -1.5 0.765625 -1.9375 C 0.617188 -2.375 0.546875 -2.851562 0.546875 -3.375 C 0.546875 -3.925781 0.628906 -4.429688 0.796875 -4.890625 C 0.960938 -5.347656 1.191406 -5.742188 1.484375 -6.078125 C 1.773438 -6.410156 2.113281 -6.664062 2.5 -6.84375 C 2.894531 -7.03125 3.320312 -7.125 3.78125 -7.125 C 4.363281 -7.125 4.835938 -7 5.203125 -6.75 C 5.578125 -6.507812 5.851562 -6.171875 6.03125 -5.734375 L 6.0625 -5.734375 L 6.0625 -8.09375 C 6.0625 -8.507812 6.039062 -8.816406 6 -9.015625 C 5.957031 -9.210938 5.816406 -9.3125 5.578125 -9.3125 C 5.515625 -9.3125 5.4375 -9.304688 5.34375 -9.296875 C 5.25 -9.296875 5.15625 -9.289062 5.0625 -9.28125 C 4.96875 -9.269531 4.878906 -9.257812 4.796875 -9.25 C 4.710938 -9.25 4.644531 -9.25 4.59375 -9.25 C 4.40625 -9.25 4.3125 -9.3125 4.3125 -9.4375 C 4.3125 -9.5625 4.390625 -9.625 4.546875 -9.625 Z M 4.546875 -9.625 "/></g></g></g><g fill="#000000" fill-opacity="1"><g transform="translate(49.196072, 23.945166)"><g><path d="M 1.015625 -4.140625 C 1.015625 -4.035156 1.035156 -3.972656 1.078125 -3.953125 C 1.117188 -3.929688 1.1875 -3.921875 1.28125 -3.921875 L 6.25 -3.921875 C 6.3125 -3.921875 6.359375 -3.929688 6.390625 -3.953125 C 6.429688 -3.972656 6.453125 -4.023438 6.453125 -4.109375 C 6.453125 -4.421875 6.394531 -4.734375 6.28125 -5.046875 C 6.175781 -5.367188 6.019531 -5.660156 5.8125 -5.921875 C 5.601562 -6.191406 5.328125 -6.410156 4.984375 -6.578125 C 4.648438 -6.753906 4.257812 -6.84375 3.8125 -6.84375 C 3.53125 -6.84375 3.265625 -6.804688 3.015625 -6.734375 C 2.773438 -6.660156 2.546875 -6.5625 2.328125 -6.4375 C 2.117188 -6.3125 1.929688 -6.148438 1.765625 -5.953125 C 1.609375 -5.753906 1.472656 -5.539062 1.359375 -5.3125 C 1.242188 -5.09375 1.15625 -4.878906 1.09375 -4.671875 C 1.039062 -4.460938 1.015625 -4.285156 1.015625 -4.140625 Z M 3.84375 -7.125 C 4.34375 -7.125 4.78125 -7.023438 5.15625 -6.828125 C 5.539062 -6.640625 5.859375 -6.394531 6.109375 -6.09375 C 6.359375 -5.789062 6.539062 -5.453125 6.65625 -5.078125 C 6.78125 -4.710938 6.84375 -4.351562 6.84375 -4 C 6.84375 -3.84375 6.8125 -3.734375 6.75 -3.671875 C 6.6875 -3.617188 6.550781 -3.59375 6.34375 -3.59375 L 1.234375 -3.59375 C 1.117188 -3.59375 1.039062 -3.570312 1 -3.53125 C 0.96875 -3.5 0.953125 -3.40625 0.953125 -3.25 C 0.953125 -2.8125 1.007812 -2.398438 1.125 -2.015625 C 1.25 -1.640625 1.425781 -1.304688 1.65625 -1.015625 C 1.894531 -0.734375 2.1875 -0.503906 2.53125 -0.328125 C 2.882812 -0.160156 3.289062 -0.078125 3.75 -0.078125 C 4.082031 -0.078125 4.394531 -0.125 4.6875 -0.21875 C 4.976562 -0.320312 5.234375 -0.453125 5.453125 -0.609375 C 5.671875 -0.773438 5.851562 -0.960938 6 -1.171875 C 6.15625 -1.390625 6.257812 -1.625 6.3125 -1.875 C 6.34375 -2.007812 6.378906 -2.132812 6.421875 -2.25 C 6.460938 -2.375 6.519531 -2.4375 6.59375 -2.4375 C 6.65625 -2.4375 6.695312 -2.414062 6.71875 -2.375 C 6.75 -2.332031 6.765625 -2.285156 6.765625 -2.234375 C 6.765625 -2.109375 6.734375 -1.953125 6.671875 -1.765625 C 6.609375 -1.578125 6.507812 -1.375 6.375 -1.15625 C 6.125 -0.738281 5.78125 -0.40625 5.34375 -0.15625 C 4.90625 0.0820312 4.378906 0.203125 3.765625 0.203125 C 3.222656 0.203125 2.75 0.109375 2.34375 -0.078125 C 1.945312 -0.273438 1.613281 -0.539062 1.34375 -0.875 C 1.082031 -1.207031 0.882812 -1.585938 0.75 -2.015625 C 0.613281 -2.453125 0.546875 -2.910156 0.546875 -3.390625 C 0.546875 -3.929688 0.625 -4.429688 0.78125 -4.890625 C 0.9375 -5.347656 1.160156 -5.742188 1.453125 -6.078125 C 1.742188 -6.410156 2.09375 -6.664062 2.5 -6.84375 C 2.90625 -7.03125 3.351562 -7.125 3.84375 -7.125 Z M 3.84375 -7.125 "/></g></g></g><g fill="#000000" fill-opacity="1"><g transform="translate(56.721481, 23.945166)"><g><path d="M 3.453125 -7.125 C 3.898438 -7.125 4.304688 -7.039062 4.671875 -6.875 C 5.035156 -6.707031 5.34375 -6.40625 5.59375 -5.96875 L 5.625 -5.96875 C 5.625 -6.15625 5.613281 -6.296875 5.59375 -6.390625 C 5.582031 -6.484375 5.578125 -6.566406 5.578125 -6.640625 C 5.578125 -6.753906 5.59375 -6.847656 5.625 -6.921875 C 5.664062 -7.003906 5.722656 -7.046875 5.796875 -7.046875 C 5.867188 -7.046875 5.910156 -7.003906 5.921875 -6.921875 C 5.941406 -6.835938 5.953125 -6.75 5.953125 -6.65625 C 5.953125 -6.507812 5.9375 -6.332031 5.90625 -6.125 C 5.875 -5.925781 5.859375 -5.710938 5.859375 -5.484375 C 5.859375 -5.429688 5.863281 -5.347656 5.875 -5.234375 C 5.882812 -5.128906 5.894531 -5.019531 5.90625 -4.90625 C 5.914062 -4.800781 5.925781 -4.703125 5.9375 -4.609375 C 5.945312 -4.515625 5.953125 -4.445312 5.953125 -4.40625 C 5.953125 -4.351562 5.9375 -4.296875 5.90625 -4.234375 C 5.882812 -4.179688 5.835938 -4.15625 5.765625 -4.15625 C 5.691406 -4.15625 5.640625 -4.175781 5.609375 -4.21875 C 5.585938 -4.269531 5.578125 -4.320312 5.578125 -4.375 C 5.578125 -4.457031 5.582031 -4.535156 5.59375 -4.609375 C 5.613281 -4.691406 5.625 -4.773438 5.625 -4.859375 C 5.625 -5.046875 5.59375 -5.234375 5.53125 -5.421875 C 5.476562 -5.617188 5.398438 -5.796875 5.296875 -5.953125 C 5.140625 -6.210938 4.914062 -6.425781 4.625 -6.59375 C 4.34375 -6.757812 3.96875 -6.84375 3.5 -6.84375 C 3.195312 -6.84375 2.921875 -6.800781 2.671875 -6.71875 C 2.429688 -6.644531 2.21875 -6.535156 2.03125 -6.390625 C 1.84375 -6.242188 1.695312 -6.0625 1.59375 -5.84375 C 1.488281 -5.632812 1.4375 -5.394531 1.4375 -5.125 C 1.4375 -4.6875 1.578125 -4.382812 1.859375 -4.21875 C 2.128906 -4.0625 2.441406 -3.953125 2.796875 -3.890625 C 3.148438 -3.835938 3.550781 -3.773438 4 -3.703125 C 4.332031 -3.648438 4.625 -3.59375 4.875 -3.53125 C 5.125 -3.46875 5.335938 -3.390625 5.515625 -3.296875 C 5.835938 -3.128906 6.050781 -2.921875 6.15625 -2.671875 C 6.257812 -2.429688 6.3125 -2.191406 6.3125 -1.953125 C 6.3125 -1.640625 6.242188 -1.351562 6.109375 -1.09375 C 5.984375 -0.832031 5.800781 -0.601562 5.5625 -0.40625 C 5.332031 -0.21875 5.050781 -0.0703125 4.71875 0.03125 C 4.394531 0.144531 4.03125 0.203125 3.625 0.203125 C 3.050781 0.203125 2.546875 0.0976562 2.109375 -0.109375 C 1.679688 -0.328125 1.367188 -0.625 1.171875 -1 L 1.140625 -1 C 1.140625 -0.96875 1.140625 -0.90625 1.140625 -0.8125 C 1.148438 -0.726562 1.15625 -0.640625 1.15625 -0.546875 C 1.164062 -0.453125 1.171875 -0.363281 1.171875 -0.28125 C 1.179688 -0.207031 1.1875 -0.15625 1.1875 -0.125 C 1.1875 -0.0507812 1.175781 0.015625 1.15625 0.078125 C 1.132812 0.140625 1.085938 0.171875 1.015625 0.171875 C 0.953125 0.171875 0.898438 0.148438 0.859375 0.109375 C 0.828125 0.078125 0.8125 0 0.8125 -0.125 C 0.8125 -0.207031 0.816406 -0.316406 0.828125 -0.453125 C 0.835938 -0.585938 0.847656 -0.726562 0.859375 -0.875 C 0.878906 -1.03125 0.890625 -1.171875 0.890625 -1.296875 C 0.898438 -1.429688 0.90625 -1.539062 0.90625 -1.625 C 0.90625 -1.738281 0.898438 -1.859375 0.890625 -1.984375 C 0.890625 -2.109375 0.878906 -2.226562 0.859375 -2.34375 C 0.847656 -2.46875 0.835938 -2.578125 0.828125 -2.671875 C 0.816406 -2.773438 0.8125 -2.859375 0.8125 -2.921875 C 0.8125 -3.160156 0.878906 -3.28125 1.015625 -3.28125 C 1.066406 -3.28125 1.109375 -3.253906 1.140625 -3.203125 C 1.171875 -3.148438 1.1875 -3.054688 1.1875 -2.921875 C 1.1875 -2.804688 1.175781 -2.675781 1.15625 -2.53125 C 1.144531 -2.394531 1.140625 -2.257812 1.140625 -2.125 C 1.140625 -1.820312 1.203125 -1.539062 1.328125 -1.28125 C 1.453125 -1.03125 1.625 -0.816406 1.84375 -0.640625 C 2.070312 -0.460938 2.335938 -0.320312 2.640625 -0.21875 C 2.941406 -0.125 3.269531 -0.078125 3.625 -0.078125 C 3.96875 -0.078125 4.28125 -0.117188 4.5625 -0.203125 C 4.84375 -0.296875 5.082031 -0.414062 5.28125 -0.5625 C 5.488281 -0.71875 5.644531 -0.90625 5.75 -1.125 C 5.851562 -1.34375 5.90625 -1.578125 5.90625 -1.828125 C 5.90625 -2.015625 5.882812 -2.179688 5.84375 -2.328125 C 5.800781 -2.484375 5.710938 -2.625 5.578125 -2.75 C 5.421875 -2.90625 5.175781 -3.03125 4.84375 -3.125 C 4.519531 -3.226562 4.050781 -3.316406 3.4375 -3.390625 C 2.914062 -3.453125 2.507812 -3.523438 2.21875 -3.609375 C 1.925781 -3.703125 1.691406 -3.820312 1.515625 -3.96875 C 1.335938 -4.101562 1.210938 -4.265625 1.140625 -4.453125 C 1.066406 -4.648438 1.03125 -4.867188 1.03125 -5.109375 C 1.03125 -5.398438 1.09375 -5.671875 1.21875 -5.921875 C 1.351562 -6.171875 1.53125 -6.382812 1.75 -6.5625 C 1.96875 -6.75 2.222656 -6.890625 2.515625 -6.984375 C 2.816406 -7.078125 3.128906 -7.125 3.453125 -7.125 Z M 3.453125 -7.125 "/></g></g></g><g fill="#000000" fill-opacity="1"><g transform="translate(63.735982, 23.945166)"><g><path d="M 0.65625 -6.96875 C 0.675781 -6.96875 0.757812 -6.957031 0.90625 -6.9375 C 1.050781 -6.925781 1.253906 -6.921875 1.515625 -6.921875 C 1.734375 -6.921875 1.90625 -6.925781 2.03125 -6.9375 C 2.15625 -6.957031 2.25 -6.96875 2.3125 -6.96875 C 2.40625 -6.96875 2.46875 -6.945312 2.5 -6.90625 C 2.53125 -6.863281 2.546875 -6.800781 2.546875 -6.71875 L 2.546875 -2.328125 C 2.546875 -2.023438 2.546875 -1.773438 2.546875 -1.578125 C 2.554688 -1.378906 2.5625 -1.210938 2.5625 -1.078125 C 2.570312 -0.953125 2.582031 -0.847656 2.59375 -0.765625 C 2.613281 -0.691406 2.632812 -0.628906 2.65625 -0.578125 C 2.6875 -0.460938 2.75 -0.375 2.84375 -0.3125 C 2.945312 -0.25 3.101562 -0.21875 3.3125 -0.21875 C 3.414062 -0.21875 3.535156 -0.226562 3.671875 -0.25 C 3.804688 -0.269531 3.910156 -0.28125 3.984375 -0.28125 C 4.066406 -0.28125 4.140625 -0.257812 4.203125 -0.21875 C 4.265625 -0.1875 4.296875 -0.140625 4.296875 -0.078125 C 4.296875 -0.015625 4.265625 0.0234375 4.203125 0.046875 C 4.148438 0.078125 4.085938 0.09375 4.015625 0.09375 C 3.941406 0.09375 3.835938 0.0859375 3.703125 0.078125 C 3.566406 0.0664062 3.414062 0.0546875 3.25 0.046875 C 3.09375 0.0351562 2.929688 0.0234375 2.765625 0.015625 C 2.609375 0.00390625 2.46875 0 2.34375 0 C 2.238281 0 2.101562 0.00390625 1.9375 0.015625 C 1.78125 0.0234375 1.617188 0.0351562 1.453125 0.046875 C 1.296875 0.0546875 1.144531 0.0664062 1 0.078125 C 0.851562 0.0859375 0.75 0.09375 0.6875 0.09375 C 0.613281 0.09375 0.550781 0.078125 0.5 0.046875 C 0.445312 0.0234375 0.421875 -0.015625 0.421875 -0.078125 C 0.421875 -0.140625 0.445312 -0.1875 0.5 -0.21875 C 0.5625 -0.257812 0.632812 -0.28125 0.71875 -0.28125 C 0.800781 -0.28125 0.910156 -0.269531 1.046875 -0.25 C 1.179688 -0.226562 1.296875 -0.21875 1.390625 -0.21875 C 1.585938 -0.21875 1.734375 -0.238281 1.828125 -0.28125 C 1.921875 -0.332031 1.988281 -0.40625 2.03125 -0.5 C 2.050781 -0.539062 2.066406 -0.59375 2.078125 -0.65625 C 2.097656 -0.726562 2.113281 -0.828125 2.125 -0.953125 C 2.144531 -1.078125 2.15625 -1.25 2.15625 -1.46875 C 2.164062 -1.6875 2.171875 -1.972656 2.171875 -2.328125 L 2.171875 -5.03125 C 2.171875 -5.382812 2.164062 -5.671875 2.15625 -5.890625 C 2.15625 -6.109375 2.132812 -6.273438 2.09375 -6.390625 C 2.0625 -6.503906 2.003906 -6.578125 1.921875 -6.609375 C 1.847656 -6.640625 1.742188 -6.65625 1.609375 -6.65625 C 1.566406 -6.65625 1.5 -6.648438 1.40625 -6.640625 C 1.320312 -6.640625 1.234375 -6.632812 1.140625 -6.625 C 1.054688 -6.613281 0.96875 -6.609375 0.875 -6.609375 C 0.789062 -6.609375 0.726562 -6.609375 0.6875 -6.609375 C 0.507812 -6.609375 0.421875 -6.664062 0.421875 -6.78125 C 0.421875 -6.90625 0.5 -6.96875 0.65625 -6.96875 Z M 2.21875 -9.078125 C 2.363281 -9.078125 2.484375 -9.023438 2.578125 -8.921875 C 2.679688 -8.828125 2.734375 -8.707031 2.734375 -8.5625 C 2.734375 -8.414062 2.679688 -8.289062 2.578125 -8.1875 C 2.484375 -8.082031 2.363281 -8.03125 2.21875 -8.03125 C 2.082031 -8.03125 1.960938 -8.082031 1.859375 -8.1875 C 1.765625 -8.289062 1.71875 -8.414062 1.71875 -8.5625 C 1.71875 -8.707031 1.765625 -8.828125 1.859375 -8.921875 C 1.960938 -9.023438 2.082031 -9.078125 2.21875 -9.078125 Z M 2.21875 -9.078125 "/></g></g></g><g fill="#000000" fill-opacity="1"><g transform="translate(68.154569, 23.945166)"><g><path d="M 0.921875 0.59375 C 0.921875 1.175781 1.207031 1.625 1.78125 1.9375 C 2.351562 2.25 3.203125 2.40625 4.328125 2.40625 C 5.421875 2.40625 6.238281 2.234375 6.78125 1.890625 C 7.332031 1.554688 7.609375 1.109375 7.609375 0.546875 C 7.609375 -0.0351562 7.316406 -0.484375 6.734375 -0.796875 C 6.148438 -1.109375 5.257812 -1.265625 4.0625 -1.265625 C 3.0625 -1.265625 2.285156 -1.101562 1.734375 -0.78125 C 1.191406 -0.457031 0.921875 0 0.921875 0.59375 Z M 2.078125 -4.75 C 2.078125 -4.144531 2.273438 -3.664062 2.671875 -3.3125 C 3.078125 -2.96875 3.613281 -2.796875 4.28125 -2.796875 C 4.59375 -2.796875 4.878906 -2.84375 5.140625 -2.9375 C 5.410156 -3.039062 5.640625 -3.175781 5.828125 -3.34375 C 6.023438 -3.519531 6.179688 -3.726562 6.296875 -3.96875 C 6.410156 -4.207031 6.46875 -4.472656 6.46875 -4.765625 C 6.46875 -5.398438 6.269531 -5.90625 5.875 -6.28125 C 5.488281 -6.65625 4.953125 -6.84375 4.265625 -6.84375 C 3.929688 -6.84375 3.628906 -6.789062 3.359375 -6.6875 C 3.085938 -6.582031 2.859375 -6.4375 2.671875 -6.25 C 2.484375 -6.0625 2.335938 -5.835938 2.234375 -5.578125 C 2.128906 -5.328125 2.078125 -5.050781 2.078125 -4.75 Z M 7.203125 -8.171875 C 7.546875 -8.171875 7.816406 -8.070312 8.015625 -7.875 C 8.210938 -7.6875 8.3125 -7.460938 8.3125 -7.203125 C 8.3125 -7.015625 8.25 -6.851562 8.125 -6.71875 C 8 -6.582031 7.851562 -6.515625 7.6875 -6.515625 C 7.570312 -6.515625 7.472656 -6.550781 7.390625 -6.625 C 7.304688 -6.707031 7.265625 -6.816406 7.265625 -6.953125 C 7.265625 -7.066406 7.300781 -7.15625 7.375 -7.21875 C 7.445312 -7.289062 7.523438 -7.328125 7.609375 -7.328125 C 7.640625 -7.328125 7.671875 -7.320312 7.703125 -7.3125 C 7.742188 -7.3125 7.78125 -7.3125 7.8125 -7.3125 C 7.882812 -7.3125 7.921875 -7.351562 7.921875 -7.4375 C 7.921875 -7.539062 7.851562 -7.640625 7.71875 -7.734375 C 7.59375 -7.835938 7.425781 -7.890625 7.21875 -7.890625 C 6.925781 -7.890625 6.6875 -7.800781 6.5 -7.625 C 6.320312 -7.445312 6.234375 -7.226562 6.234375 -6.96875 C 6.234375 -6.800781 6.265625 -6.640625 6.328125 -6.484375 C 6.390625 -6.328125 6.460938 -6.171875 6.546875 -6.015625 C 6.628906 -5.859375 6.703125 -5.679688 6.765625 -5.484375 C 6.828125 -5.285156 6.859375 -5.0625 6.859375 -4.8125 C 6.859375 -4.46875 6.796875 -4.15625 6.671875 -3.875 C 6.546875 -3.59375 6.367188 -3.347656 6.140625 -3.140625 C 5.910156 -2.941406 5.632812 -2.785156 5.3125 -2.671875 C 5 -2.566406 4.644531 -2.515625 4.25 -2.515625 C 3.8125 -2.515625 3.414062 -2.582031 3.0625 -2.71875 C 2.707031 -2.851562 2.398438 -3.050781 2.140625 -3.3125 C 1.859375 -3.3125 1.644531 -3.242188 1.5 -3.109375 C 1.351562 -2.972656 1.28125 -2.800781 1.28125 -2.59375 C 1.28125 -2.332031 1.363281 -2.128906 1.53125 -1.984375 C 1.707031 -1.847656 1.9375 -1.75 2.21875 -1.6875 C 2.5 -1.625 2.820312 -1.585938 3.1875 -1.578125 C 3.550781 -1.566406 3.925781 -1.5625 4.3125 -1.5625 C 4.476562 -1.5625 4.660156 -1.554688 4.859375 -1.546875 C 5.054688 -1.535156 5.257812 -1.515625 5.46875 -1.484375 C 5.675781 -1.460938 5.878906 -1.429688 6.078125 -1.390625 C 6.273438 -1.347656 6.457031 -1.300781 6.625 -1.25 C 7.039062 -1.09375 7.375 -0.878906 7.625 -0.609375 C 7.882812 -0.335938 8.015625 0.0390625 8.015625 0.53125 C 8.015625 1.25 7.691406 1.785156 7.046875 2.140625 C 6.398438 2.503906 5.476562 2.6875 4.28125 2.6875 C 3.039062 2.6875 2.101562 2.503906 1.46875 2.140625 C 0.84375 1.773438 0.53125 1.257812 0.53125 0.59375 C 0.53125 0.125 0.671875 -0.265625 0.953125 -0.578125 C 1.242188 -0.898438 1.695312 -1.15625 2.3125 -1.34375 L 2.3125 -1.375 C 1.363281 -1.476562 0.890625 -1.890625 0.890625 -2.609375 C 0.890625 -2.867188 0.957031 -3.085938 1.09375 -3.265625 C 1.238281 -3.441406 1.507812 -3.582031 1.90625 -3.6875 C 1.8125 -3.894531 1.75 -4.0625 1.71875 -4.1875 C 1.6875 -4.3125 1.671875 -4.484375 1.671875 -4.703125 C 1.671875 -5.078125 1.738281 -5.410156 1.875 -5.703125 C 2.007812 -6.003906 2.195312 -6.257812 2.4375 -6.46875 C 2.675781 -6.6875 2.953125 -6.847656 3.265625 -6.953125 C 3.578125 -7.066406 3.910156 -7.125 4.265625 -7.125 C 4.515625 -7.125 4.769531 -7.085938 5.03125 -7.015625 C 5.300781 -6.953125 5.601562 -6.828125 5.9375 -6.640625 C 5.914062 -6.710938 5.898438 -6.773438 5.890625 -6.828125 C 5.878906 -6.890625 5.875 -6.957031 5.875 -7.03125 C 5.875 -7.375 6 -7.648438 6.25 -7.859375 C 6.507812 -8.066406 6.828125 -8.171875 7.203125 -8.171875 Z M 7.203125 -8.171875 "/></g></g></g><g fill="#000000" fill-opacity="1"><g transform="translate(76.467033, 23.945166)"><g><path d="M 5.171875 -7.125 C 6.066406 -7.125 6.726562 -6.882812 7.15625 -6.40625 C 7.582031 -5.9375 7.796875 -5.171875 7.796875 -4.109375 L 7.796875 -2.0625 C 7.796875 -1.6875 7.796875 -1.378906 7.796875 -1.140625 C 7.804688 -0.910156 7.835938 -0.726562 7.890625 -0.59375 C 7.941406 -0.457031 8.015625 -0.359375 8.109375 -0.296875 C 8.210938 -0.242188 8.351562 -0.21875 8.53125 -0.21875 C 8.65625 -0.21875 8.78125 -0.226562 8.90625 -0.25 C 9.039062 -0.269531 9.148438 -0.28125 9.234375 -0.28125 C 9.316406 -0.28125 9.390625 -0.257812 9.453125 -0.21875 C 9.515625 -0.1875 9.546875 -0.140625 9.546875 -0.078125 C 9.546875 -0.015625 9.515625 0.0234375 9.453125 0.046875 C 9.398438 0.078125 9.335938 0.09375 9.265625 0.09375 C 9.191406 0.09375 9.085938 0.0859375 8.953125 0.078125 C 8.816406 0.0664062 8.664062 0.0546875 8.5 0.046875 C 8.34375 0.0351562 8.179688 0.0234375 8.015625 0.015625 C 7.859375 0.00390625 7.71875 0 7.59375 0 C 7.488281 0 7.351562 0.00390625 7.1875 0.015625 C 7.03125 0.0234375 6.875 0.0351562 6.71875 0.046875 C 6.5625 0.0546875 6.410156 0.0664062 6.265625 0.078125 C 6.128906 0.0859375 6.023438 0.09375 5.953125 0.09375 C 5.867188 0.09375 5.796875 0.078125 5.734375 0.046875 C 5.679688 0.0234375 5.65625 -0.015625 5.65625 -0.078125 C 5.65625 -0.140625 5.6875 -0.1875 5.75 -0.21875 C 5.8125 -0.257812 5.890625 -0.28125 5.984375 -0.28125 C 6.046875 -0.28125 6.144531 -0.269531 6.28125 -0.25 C 6.414062 -0.226562 6.546875 -0.21875 6.671875 -0.21875 C 6.984375 -0.21875 7.1875 -0.3125 7.28125 -0.5 C 7.300781 -0.53125 7.316406 -0.578125 7.328125 -0.640625 C 7.347656 -0.710938 7.363281 -0.8125 7.375 -0.9375 C 7.394531 -1.0625 7.40625 -1.222656 7.40625 -1.421875 C 7.414062 -1.628906 7.421875 -1.894531 7.421875 -2.21875 L 7.421875 -4.140625 C 7.421875 -5.085938 7.238281 -5.773438 6.875 -6.203125 C 6.519531 -6.628906 5.9375 -6.84375 5.125 -6.84375 C 4.289062 -6.84375 3.648438 -6.59375 3.203125 -6.09375 C 2.765625 -5.59375 2.546875 -4.910156 2.546875 -4.046875 L 2.546875 -2.109375 C 2.546875 -1.722656 2.546875 -1.40625 2.546875 -1.15625 C 2.554688 -0.914062 2.582031 -0.726562 2.625 -0.59375 C 2.675781 -0.457031 2.753906 -0.359375 2.859375 -0.296875 C 2.960938 -0.242188 3.101562 -0.21875 3.28125 -0.21875 C 3.40625 -0.21875 3.535156 -0.226562 3.671875 -0.25 C 3.804688 -0.269531 3.910156 -0.28125 3.984375 -0.28125 C 4.066406 -0.28125 4.140625 -0.257812 4.203125 -0.21875 C 4.265625 -0.1875 4.296875 -0.140625 4.296875 -0.078125 C 4.296875 -0.015625 4.265625 0.0234375 4.203125 0.046875 C 4.148438 0.078125 4.085938 0.09375 4.015625 0.09375 C 3.941406 0.09375 3.835938 0.0859375 3.703125 0.078125 C 3.566406 0.0664062 3.414062 0.0546875 3.25 0.046875 C 3.09375 0.0351562 2.929688 0.0234375 2.765625 0.015625 C 2.609375 0.00390625 2.46875 0 2.34375 0 C 2.238281 0 2.101562 0.00390625 1.9375 0.015625 C 1.78125 0.0234375 1.617188 0.0351562 1.453125 0.046875 C 1.296875 0.0546875 1.144531 0.0664062 1 0.078125 C 0.851562 0.0859375 0.75 0.09375 0.6875 0.09375 C 0.613281 0.09375 0.550781 0.078125 0.5 0.046875 C 0.445312 0.0234375 0.421875 -0.015625 0.421875 -0.078125 C 0.421875 -0.140625 0.445312 -0.1875 0.5 -0.21875 C 0.5625 -0.257812 0.632812 -0.28125 0.71875 -0.28125 C 0.800781 -0.28125 0.910156 -0.269531 1.046875 -0.25 C 1.179688 -0.226562 1.296875 -0.21875 1.390625 -0.21875 C 1.710938 -0.21875 1.921875 -0.300781 2.015625 -0.46875 C 2.046875 -0.507812 2.066406 -0.566406 2.078125 -0.640625 C 2.097656 -0.710938 2.113281 -0.8125 2.125 -0.9375 C 2.144531 -1.0625 2.15625 -1.234375 2.15625 -1.453125 C 2.164062 -1.679688 2.171875 -1.972656 2.171875 -2.328125 L 2.171875 -5.078125 C 2.171875 -5.429688 2.164062 -5.710938 2.15625 -5.921875 C 2.15625 -6.128906 2.132812 -6.285156 2.09375 -6.390625 C 2.0625 -6.503906 2.003906 -6.578125 1.921875 -6.609375 C 1.847656 -6.640625 1.742188 -6.65625 1.609375 -6.65625 C 1.566406 -6.65625 1.5 -6.648438 1.40625 -6.640625 C 1.320312 -6.640625 1.234375 -6.632812 1.140625 -6.625 C 1.054688 -6.613281 0.96875 -6.609375 0.875 -6.609375 C 0.789062 -6.609375 0.726562 -6.609375 0.6875 -6.609375 C 0.507812 -6.609375 0.421875 -6.664062 0.421875 -6.78125 C 0.421875 -6.90625 0.5 -6.96875 0.65625 -6.96875 C 0.675781 -6.96875 0.757812 -6.957031 0.90625 -6.9375 C 1.050781 -6.925781 1.253906 -6.921875 1.515625 -6.921875 C 1.734375 -6.921875 1.90625 -6.925781 2.03125 -6.9375 C 2.15625 -6.957031 2.25 -6.96875 2.3125 -6.96875 C 2.40625 -6.96875 2.46875 -6.945312 2.5 -6.90625 C 2.53125 -6.863281 2.546875 -6.800781 2.546875 -6.71875 L 2.546875 -5.625 L 2.5625 -5.625 C 3.039062 -6.625 3.910156 -7.125 5.171875 -7.125 Z M 5.171875 -7.125 "/></g></g></g><g fill="#000000" fill-opacity="1"><g transform="translate(86.077461, 23.945166)"><g><path d="M 3.453125 -7.125 C 3.898438 -7.125 4.304688 -7.039062 4.671875 -6.875 C 5.035156 -6.707031 5.34375 -6.40625 5.59375 -5.96875 L 5.625 -5.96875 C 5.625 -6.15625 5.613281 -6.296875 5.59375 -6.390625 C 5.582031 -6.484375 5.578125 -6.566406 5.578125 -6.640625 C 5.578125 -6.753906 5.59375 -6.847656 5.625 -6.921875 C 5.664062 -7.003906 5.722656 -7.046875 5.796875 -7.046875 C 5.867188 -7.046875 5.910156 -7.003906 5.921875 -6.921875 C 5.941406 -6.835938 5.953125 -6.75 5.953125 -6.65625 C 5.953125 -6.507812 5.9375 -6.332031 5.90625 -6.125 C 5.875 -5.925781 5.859375 -5.710938 5.859375 -5.484375 C 5.859375 -5.429688 5.863281 -5.347656 5.875 -5.234375 C 5.882812 -5.128906 5.894531 -5.019531 5.90625 -4.90625 C 5.914062 -4.800781 5.925781 -4.703125 5.9375 -4.609375 C 5.945312 -4.515625 5.953125 -4.445312 5.953125 -4.40625 C 5.953125 -4.351562 5.9375 -4.296875 5.90625 -4.234375 C 5.882812 -4.179688 5.835938 -4.15625 5.765625 -4.15625 C 5.691406 -4.15625 5.640625 -4.175781 5.609375 -4.21875 C 5.585938 -4.269531 5.578125 -4.320312 5.578125 -4.375 C 5.578125 -4.457031 5.582031 -4.535156 5.59375 -4.609375 C 5.613281 -4.691406 5.625 -4.773438 5.625 -4.859375 C 5.625 -5.046875 5.59375 -5.234375 5.53125 -5.421875 C 5.476562 -5.617188 5.398438 -5.796875 5.296875 -5.953125 C 5.140625 -6.210938 4.914062 -6.425781 4.625 -6.59375 C 4.34375 -6.757812 3.96875 -6.84375 3.5 -6.84375 C 3.195312 -6.84375 2.921875 -6.800781 2.671875 -6.71875 C 2.429688 -6.644531 2.21875 -6.535156 2.03125 -6.390625 C 1.84375 -6.242188 1.695312 -6.0625 1.59375 -5.84375 C 1.488281 -5.632812 1.4375 -5.394531 1.4375 -5.125 C 1.4375 -4.6875 1.578125 -4.382812 1.859375 -4.21875 C 2.128906 -4.0625 2.441406 -3.953125 2.796875 -3.890625 C 3.148438 -3.835938 3.550781 -3.773438 4 -3.703125 C 4.332031 -3.648438 4.625 -3.59375 4.875 -3.53125 C 5.125 -3.46875 5.335938 -3.390625 5.515625 -3.296875 C 5.835938 -3.128906 6.050781 -2.921875 6.15625 -2.671875 C 6.257812 -2.429688 6.3125 -2.191406 6.3125 -1.953125 C 6.3125 -1.640625 6.242188 -1.351562 6.109375 -1.09375 C 5.984375 -0.832031 5.800781 -0.601562 5.5625 -0.40625 C 5.332031 -0.21875 5.050781 -0.0703125 4.71875 0.03125 C 4.394531 0.144531 4.03125 0.203125 3.625 0.203125 C 3.050781 0.203125 2.546875 0.0976562 2.109375 -0.109375 C 1.679688 -0.328125 1.367188 -0.625 1.171875 -1 L 1.140625 -1 C 1.140625 -0.96875 1.140625 -0.90625 1.140625 -0.8125 C 1.148438 -0.726562 1.15625 -0.640625 1.15625 -0.546875 C 1.164062 -0.453125 1.171875 -0.363281 1.171875 -0.28125 C 1.179688 -0.207031 1.1875 -0.15625 1.1875 -0.125 C 1.1875 -0.0507812 1.175781 0.015625 1.15625 0.078125 C 1.132812 0.140625 1.085938 0.171875 1.015625 0.171875 C 0.953125 0.171875 0.898438 0.148438 0.859375 0.109375 C 0.828125 0.078125 0.8125 0 0.8125 -0.125 C 0.8125 -0.207031 0.816406 -0.316406 0.828125 -0.453125 C 0.835938 -0.585938 0.847656 -0.726562 0.859375 -0.875 C 0.878906 -1.03125 0.890625 -1.171875 0.890625 -1.296875 C 0.898438 -1.429688 0.90625 -1.539062 0.90625 -1.625 C 0.90625 -1.738281 0.898438 -1.859375 0.890625 -1.984375 C 0.890625 -2.109375 0.878906 -2.226562 0.859375 -2.34375 C 0.847656 -2.46875 0.835938 -2.578125 0.828125 -2.671875 C 0.816406 -2.773438 0.8125 -2.859375 0.8125 -2.921875 C 0.8125 -3.160156 0.878906 -3.28125 1.015625 -3.28125 C 1.066406 -3.28125 1.109375 -3.253906 1.140625 -3.203125 C 1.171875 -3.148438 1.1875 -3.054688 1.1875 -2.921875 C 1.1875 -2.804688 1.175781 -2.675781 1.15625 -2.53125 C 1.144531 -2.394531 1.140625 -2.257812 1.140625 -2.125 C 1.140625 -1.820312 1.203125 -1.539062 1.328125 -1.28125 C 1.453125 -1.03125 1.625 -0.816406 1.84375 -0.640625 C 2.070312 -0.460938 2.335938 -0.320312 2.640625 -0.21875 C 2.941406 -0.125 3.269531 -0.078125 3.625 -0.078125 C 3.96875 -0.078125 4.28125 -0.117188 4.5625 -0.203125 C 4.84375 -0.296875 5.082031 -0.414062 5.28125 -0.5625 C 5.488281 -0.71875 5.644531 -0.90625 5.75 -1.125 C 5.851562 -1.34375 5.90625 -1.578125 5.90625 -1.828125 C 5.90625 -2.015625 5.882812 -2.179688 5.84375 -2.328125 C 5.800781 -2.484375 5.710938 -2.625 5.578125 -2.75 C 5.421875 -2.90625 5.175781 -3.03125 4.84375 -3.125 C 4.519531 -3.226562 4.050781 -3.316406 3.4375 -3.390625 C 2.914062 -3.453125 2.507812 -3.523438 2.21875 -3.609375 C 1.925781 -3.703125 1.691406 -3.820312 1.515625 -3.96875 C 1.335938 -4.101562 1.210938 -4.265625 1.140625 -4.453125 C 1.066406 -4.648438 1.03125 -4.867188 1.03125 -5.109375 C 1.03125 -5.398438 1.09375 -5.671875 1.21875 -5.921875 C 1.351562 -6.171875 1.53125 -6.382812 1.75 -6.5625 C 1.96875 -6.75 2.222656 -6.890625 2.515625 -6.984375 C 2.816406 -7.078125 3.128906 -7.125 3.453125 -7.125 Z M 3.453125 -7.125 "/></g></g></g></svg>